<svg xmlns="http://www.w3.org/2000/svg" xmlns:xlink="http://www.w3.org/1999/xlink" viewBox="0 0 702.46 407.48"><defs><style>.cls-1{fill:#fff;}.cls-2{fill:#cecece;}.cls-3{fill:url(#radial-gradient);}.cls-4{fill:url(#radial-gradient-2);}.cls-5{fill:url(#radial-gradient-3);}.cls-6{fill:url(#radial-gradient-4);}.cls-7{fill:url(#radial-gradient-6);}.cls-8{fill:url(#radial-gradient-7);}.cls-9{fill:url(#radial-gradient-8);}.cls-10{fill:url(#radial-gradient-9);}.cls-11{fill:url(#radial-gradient-10);}.cls-12{fill:url(#radial-gradient-11);}.cls-13{fill:url(#radial-gradient-12);}.cls-14{fill:url(#radial-gradient-13);}.cls-15{fill:url(#linear-gradient);}.cls-16{fill:url(#linear-gradient-2);}.cls-17{fill:url(#linear-gradient-3);}.cls-18{fill:url(#linear-gradient-4);}.cls-19{fill:url(#linear-gradient-5);}.cls-20{fill:url(#linear-gradient-6);}.cls-21{fill:url(#linear-gradient-7);}.cls-22{fill:url(#linear-gradient-8);}.cls-23{fill:url(#linear-gradient-9);}.cls-24{fill:url(#linear-gradient-10);}.cls-25{fill:url(#linear-gradient-11);}.cls-26{fill:url(#linear-gradient-12);}.cls-27{fill:url(#linear-gradient-13);}.cls-28{fill:url(#radial-gradient-14);}.cls-29{fill:url(#radial-gradient-15);}.cls-30{fill:#31adbb;}.cls-31{fill:#029cb0;}.cls-32{fill:url(#linear-gradient-14);}.cls-33{fill:#00829f;}</style><radialGradient id="radial-gradient" cx="245.09" cy="12.78" r="0.01" gradientTransform="translate(332.92 22.67) scale(0.72 0.97)" gradientUnits="userSpaceOnUse"><stop offset="0" stop-color="#fff" stop-opacity="0.05"/><stop offset="1" stop-color="#fff"/></radialGradient><radialGradient id="radial-gradient-2" cx="245.08" cy="12.77" r="0" xlink:href="#radial-gradient"/><radialGradient id="radial-gradient-3" cx="555.03" cy="12.78" r="0.01" gradientTransform="translate(-28.42 22.67) scale(0.97)" xlink:href="#radial-gradient"/><radialGradient id="radial-gradient-4" cx="245.1" cy="12.78" r="0" xlink:href="#radial-gradient"/><radialGradient id="radial-gradient-6" cx="31.33" cy="-346.3" r="650.23" gradientTransform="translate(-28.42 22.67) scale(0.97)" xlink:href="#radial-gradient"/><radialGradient id="radial-gradient-7" cx="31.37" cy="-346.3" r="645.85" gradientTransform="translate(-28.42 22.67) scale(0.97)" xlink:href="#radial-gradient"/><radialGradient id="radial-gradient-8" cx="-459.44" cy="-346.25" r="753.31" xlink:href="#radial-gradient"/><radialGradient id="radial-gradient-9" cx="31.31" cy="-346.3" r="624.8" gradientTransform="translate(-28.42 22.67) scale(0.97)" xlink:href="#radial-gradient"/><radialGradient id="radial-gradient-10" cx="-459.44" cy="-346.29" r="753.32" xlink:href="#radial-gradient"/><radialGradient id="radial-gradient-11" cx="-459.75" cy="-346.45" r="753.72" xlink:href="#radial-gradient"/><radialGradient id="radial-gradient-12" cx="31.41" cy="-346.21" r="631.5" gradientTransform="translate(-28.42 22.67) scale(0.97)" xlink:href="#radial-gradient"/><radialGradient id="radial-gradient-13" cx="231.36" cy="24.03" r="0.01" xlink:href="#radial-gradient"/><linearGradient id="linear-gradient" x1="188.25" y1="246.75" x2="510.47" y2="246.75" gradientUnits="userSpaceOnUse"><stop offset="0" stop-color="#029cb0"/><stop offset="1" stop-color="#00829f"/></linearGradient><linearGradient id="linear-gradient-2" x1="188.25" y1="203.17" x2="510.47" y2="203.17" xlink:href="#linear-gradient"/><linearGradient id="linear-gradient-3" x1="237.03" y1="244.91" x2="462.96" y2="244.91" xlink:href="#linear-gradient"/><linearGradient id="linear-gradient-4" x1="237.03" y1="202.13" x2="462.96" y2="202.13" xlink:href="#linear-gradient"/><linearGradient id="linear-gradient-5" x1="237.03" y1="215.9" x2="462.96" y2="215.9" xlink:href="#linear-gradient"/><linearGradient id="linear-gradient-6" x1="237.03" y1="201.68" x2="462.96" y2="201.68" xlink:href="#linear-gradient"/><linearGradient id="linear-gradient-7" x1="237.03" y1="231.47" x2="462.96" y2="231.47" xlink:href="#linear-gradient"/><linearGradient id="linear-gradient-8" x1="237.03" y1="222.44" x2="462.96" y2="222.44" xlink:href="#linear-gradient"/><linearGradient id="linear-gradient-9" x1="237.03" y1="244.92" x2="462.96" y2="244.92" xlink:href="#linear-gradient"/><linearGradient id="linear-gradient-10" x1="237.03" y1="231.47" x2="462.96" y2="231.47" xlink:href="#linear-gradient"/><linearGradient id="linear-gradient-11" x1="237.03" y1="213.28" x2="462.96" y2="213.28" xlink:href="#linear-gradient"/><linearGradient id="linear-gradient-12" x1="237.03" y1="221.47" x2="462.96" y2="221.47" xlink:href="#linear-gradient"/><linearGradient id="linear-gradient-13" x1="237.03" y1="212.96" x2="462.96" y2="212.96" xlink:href="#linear-gradient"/><radialGradient id="radial-gradient-14" cx="-200.21" cy="189.65" r="0" xlink:href="#radial-gradient"/><radialGradient id="radial-gradient-15" cx="-183.3" cy="186.26" r="0.01" xlink:href="#radial-gradient"/><linearGradient id="linear-gradient-14" x1="188.25" y1="231.25" x2="1868.32" y2="231.25" xlink:href="#linear-gradient"/></defs><g id="Layer_2" data-name="Layer 2"><g id="Layer_1-2" data-name="Layer 1"><path class="cls-1" d="M687.62,222.89l.58-.75a3.19,3.19,0,0,0,2.42,1.12c1.38,0,1.83-.75,1.83-1.35,0-2-4.59-.88-4.59-3.64,0-1.28,1.14-2.16,2.67-2.16a3.62,3.62,0,0,1,2.74,1.09l-.58.71a2.92,2.92,0,0,0-2.24-.93c-.92,0-1.59.5-1.59,1.23,0,1.74,4.58.74,4.58,3.63,0,1.12-.76,2.28-2.85,2.28A3.83,3.83,0,0,1,687.62,222.89Z"/><path class="cls-1" d="M701.5,224v-6.52L698.88,224h-.4l-2.63-6.52V224h-1v-7.75h1.39l2.41,6,2.4-6h1.38V224Z"/><path class="cls-1" d="M176.56,180.41q5.87-.75,11.82-1.45V92.66H166.89l-12.81,65.19L141.37,92.66H119.92v96.51q5.86-1.08,11.82-2.09V105.52L148,180.09l.79,4.22q5.32-.83,10.74-1.6l.49-2.61,16.5-74.9Z"/><path class="cls-1" d="M237.28,103.49V92.66H200.16v77.43l6.84,6.84,5-.5q12.51-1.23,25.31-2.23V163.31q-12.78,1-25.31,2.21V139.75q12.59-.62,25.31-1.11V127.79q-12.71.49-25.31,1.09V103.49Z"/><path class="cls-1" d="M69.28,92.66l-8,7.64V202q5.82-1.51,11.82-3V148.27c7.32-.79,14.43-1.54,21.87-2.27v47.89q5.85-1.24,11.82-2.42v-91L99,92.66ZM95,135.07c-7.43.72-14.54,1.47-21.87,2.25V103.49H95Z"/><path class="cls-1" d="M25.58,142.8v11q5.87-.75,11.79-1.47v45.07c-2.35.7-4.7,1.4-7,2.11-5.69,1.75-13.18,3.54-18.54,5.37V103.49h35.4V92.66H7.64L0,100v3.51H0V210.7L7.26,218c1.51-.54,3-1.09,4.56-1.63,7.54-2.64,17.38-5.19,25.55-7.64q3.18-.94,6.42-1.88l5.4-7.84V140l-11.82,1.39Z"/><path class="cls-1" d="M298.44,103.49V92.66h-29.7l-7.42,7.42V165l7.21,7.21c1.54-.08,3.07-.18,4.61-.25q12.54-.65,25.3-1.07V160q-12.72.41-25.3,1.05V103.49Z"/><path class="cls-1" d="M682.57,145.08c-1.84-.25-3.66-.51-5.5-.75q-10-1.34-20.22-2.57V103.49h31V92.66H652.46L645,99.28v44.56l5.71,8.15,6.11.73q10.2,1.26,20.22,2.59v49.55q-8-2.75-16.57-5.37Q652.91,197.17,645,195v11.26q16.86,4.78,32,10.1c1.54.54,3,1.09,4.56,1.63l7.26-7.25V152.16Z"/><path class="cls-1" d="M538.52,92.66v84.52l6.58,7.61,5.24.83q12.92,2.08,25.3,4.43V179q-12.43-2.33-25.3-4.39V142.22c8.49.64,16.94,1.31,25.3,2V133.34c-8.37-.72-16.82-1.39-25.3-2V103.49h25.3V92.66H538.52Z"/><path class="cls-1" d="M308.59,92.66V170.5q5.9-.15,11.82-.25V136.67q10.9-.1,21.87-.11V170h3.15c2.9,0,5.79,0,8.67,0V92.66H342.28v33.06q-11,0-21.87.11V92.66Z"/><path class="cls-1" d="M505,128.28v10.88c3.33.2,6.64.39,9.95.6v29.77q-9.85-1.25-19.9-2.35V103.49h30.31V92.66H491.17l-8,7.64v70.35l6.94,6.94,4.88.52q10.07,1.13,19.9,2.38l4.5.6,7.32-6.5v-45q-5.9-.39-11.82-.75C511.61,128.67,508.3,128.48,505,128.28Z"/><path class="cls-1" d="M632.6,142.89V100.5l-6.78-7.84H588.08v99.82q6,1.22,11.81,2.48V146.47c4.66.46,9.28.92,13.89,1.4l11.4,53q6.42,1.62,12.63,3.31l-11.76-55Zm-11.82-5.24q-10.37-1.1-20.89-2.11v-32h20.89Z"/><path class="cls-1" d="M409.76,171.51v-71l-7.8-7.8H373.2l-8,7.64v69.88q5.92.09,11.81.22V136.75q10.49.1,20.89.31v34Q403.88,171.24,409.76,171.51Zm-32.71-45.6V103.49h20.89v22.73Q387.53,126,377.05,125.91Z"/><path class="cls-1" d="M433.7,105.09,451.39,174c2.63.2,5.26.41,7.87.63l4.44.37,7.38.65v-83H459.26v71.73L443.1,92.66H421.88v79.45c4,.22,7.9.44,11.82.69Z"/><polygon class="cls-2" points="170.14 94.83 188.38 94.83 188.38 92.66 166.89 92.66 154.08 157.85 157.32 160.01 170.14 94.83"/><path class="cls-2" d="M141.79,94.83l-.42-2.17H119.92v96.51l3.25-.58V94.83Z"/><path class="cls-2" d="M135,107.68l-3.25-2.16L148,180.09l.79,4.22,2.76-.41-.3-1.64Z"/><path class="cls-2" d="M176.56,105.2v75.21l3.25-.4V107.37Z"/><path class="cls-2" d="M237.28,165.75v-2.44c-7.42.58-18,1.52-25.31,2.21l3.25,2.17Q226.15,166.63,237.28,165.75Z"/><path class="cls-2" d="M203.4,94.83h33.88V92.66H200.16v77.43l6.84,6.84,1-.1-4.58-4.58Z"/><path class="cls-2" d="M237.28,130.1v-2.31c-7.38.28-18,.75-25.31,1.09l3.25,2.17Q226.2,130.52,237.28,130.1Z"/><path class="cls-2" d="M72.53,94.83h28.66L99,92.66H69.28l-8,7.64V202l3.25-.83V102.46Z"/><path class="cls-2" d="M95,135.07c-6.32.61-15.67,1.59-21.87,2.25l3.25,2.17c7.33-.79,14.44-1.53,21.87-2.25V105.66L95,103.49Z"/><path class="cls-2" d="M95,146v47.89l3.25-.68v-45Z"/><path class="cls-2" d="M40.62,143.51c2.85-.35,5.71-.68,8.57-1V140l-11.82,1.39L25.58,142.8v11l3.25-.4V145C32.75,144.47,36.67,144,40.62,143.51Z"/><path class="cls-2" d="M33.61,201.65c2.31-.71,4.66-1.41,7-2.1V154.48l-3.25-2.17v45.07c-2.35.7-4.7,1.4-7,2.11-4.62,1.42-13.65,3.89-18.54,5.37L15.07,207C20.43,205.19,27.92,203.4,33.61,201.65Z"/><path class="cls-2" d="M3.25,148.1V102.15l8.17-7.84-.54.52H47.22V92.66H7.64L0,100V210.7L7.26,218l.79-.28-4.8-4.81Z"/><path class="cls-2" d="M264.57,102.24,272,94.83h26.46V92.66h-29.7l-7.42,7.42V165l7.21,7.21,1-.06-5-5Z"/><path class="cls-2" d="M298.44,162.28V160c-7.39.24-18,.69-25.3,1.05l3.25,2.16Q287.34,162.66,298.44,162.28Z"/><path class="cls-2" d="M648.28,101.45l7.43-6.62H687.9V92.66H652.46L645,99.28v44.56l5.71,8.15,1.89.23L648.28,146Z"/><path class="cls-2" d="M680.32,146.49l4,.55-1.75-2c-1.84-.25-3.66-.51-5.5-.75-5.62-.75-14.53-1.87-20.22-2.57l3.25,2.16Q670.29,145.17,680.32,146.49Z"/><path class="cls-2" d="M663.75,201.65q8.54,2.63,16.57,5.37V157.48l-3.25-2.17v49.55q-8-2.75-16.57-5.37Q652.91,197.17,645,195v11.26c1.1.31,2.17.63,3.25.95v-10Q656.16,199.32,663.75,201.65Z"/><path class="cls-2" d="M575.64,135.24v-1.9c-7.3-.63-17.91-1.46-25.3-2l3.24,2.16Q564.68,134.32,575.64,135.24Z"/><path class="cls-2" d="M541.77,94.83h33.87V92.66H538.52v84.52l6.58,7.61,1.59.25-4.92-5.69Z"/><path class="cls-2" d="M575.64,180.58V179c-7.24-1.35-17.85-3.17-25.3-4.39l3.24,2.17Q564.78,178.57,575.64,180.58Z"/><path class="cls-2" d="M345.53,127.89V94.83h8.57V92.66H342.28v33.06c-6.22,0-15.67.07-21.87.11l3.25,2.17Q334.57,127.9,345.53,127.89Z"/><path class="cls-2" d="M342.28,136.56V170h3.25V138.72Z"/><path class="cls-2" d="M320.41,94.83V92.66H308.59V170.5l3.25-.07V94.83Z"/><path class="cls-2" d="M518.17,171.7V141.92l-3.25-2.16v29.77c-5.5-.69-14.31-1.72-19.9-2.35l3.25,2.16Q508.3,170.45,518.17,171.7Z"/><path class="cls-2" d="M518.17,131l8.57.55v-2q-5.9-.39-11.82-.75c-3.31-.21-6.62-.4-9.95-.6v10.88l3.25.2v-8.91Z"/><path class="cls-2" d="M486.45,102.46l8-7.63h30.91V92.66H491.17l-8,7.64v70.35l6.94,6.94,1.21.13-4.9-4.9Z"/><path class="cls-2" d="M620.78,137.65c-5.84-.62-15-1.53-20.89-2.11l3.25,2.17q10.51,1,20.89,2.1V105.66l-3.25-2.17Z"/><path class="cls-2" d="M613.78,147.87l11.4,53,2.94.76L617,150Z"/><path class="cls-2" d="M593.1,94.83h34.59l-1.87-2.17H588.08v99.82l3.24.67V94.83Z"/><path class="cls-2" d="M397.94,137.06v34l3.25.13V139.23Z"/><path class="cls-2" d="M376.45,94.83h27.68L402,92.66H373.2l-8,7.64v69.88l3.24.06V102.46Z"/><path class="cls-2" d="M397.94,126.22c-5.86-.11-15-.24-20.89-.31l3.25,2.16q10.47.12,20.89.32V105.66l-3.25-2.17Z"/><path class="cls-2" d="M433.7,105.09,451.39,174l2.75.22-17.19-67Z"/><polygon class="cls-2" points="462.51 94.83 471.08 94.83 471.08 92.66 459.26 92.66 459.26 164.4 462.51 166.56 462.51 94.83"/><path class="cls-2" d="M443.59,94.83l-.49-2.17H421.88v79.45l3.25.19V94.83Z"/><polygon class="cls-3" points="509.46 35.06 509.45 35.05 509.45 35.05 509.45 35.05 509.46 35.06 509.46 35.06"/><polygon class="cls-4" points="509.45 35.05 509.45 35.05 509.45 35.05 509.45 35.05"/><polygon class="cls-5" points="509.46 35.05 509.46 35.06 509.45 35.05 509.46 35.05"/><polygon class="cls-6" points="509.46 35.05 509.46 35.05 509.46 35.05 509.46 35.05"/><polygon class="cls-4" points="509.45 35.05 509.45 35.05 509.45 35.05 509.45 35.05"/><polygon class="cls-1" points="297.85 24.07 296.81 28.55 307.86 28.55 305.93 36.43 295.02 36.43 292.4 47.64 280.98 47.64 288.42 15.56 310.53 15.56 308.45 24.07 297.85 24.07"/><polygon class="cls-7" points="297.85 24.07 296.81 28.55 307.86 28.55 305.93 36.43 295.02 36.43 292.4 47.64 280.98 47.64 288.42 15.56 310.53 15.56 308.45 24.07 297.85 24.07"/><polygon class="cls-1" points="324.96 15.56 317.52 47.64 306.1 47.64 313.54 15.56 324.96 15.56"/><polygon class="cls-8" points="324.96 15.56 317.52 47.64 306.1 47.64 313.54 15.56 324.96 15.56"/><path class="cls-1" d="M351.46,31.87A11.94,11.94,0,0,0,354.35,24a8,8,0,0,0-5-7.55,26.51,26.51,0,0,0-9.9-1.49c-2.52,0-7.08.29-10.74.72l-.74.09-7.38,31.89h11.1l2.52-11c2.15,5.19,2.62,6.39,4.24,11H351c-2.25-5.14-4.92-10.34-5.81-11.35a7.31,7.31,0,0,0-.58-.48l.73-.24A11.22,11.22,0,0,0,351.46,31.87Zm-15.08-1a4.3,4.3,0,0,1-.84-.1l1.73-7.41a8,8,0,0,1,1.78-.19c2.36,0,3.56.82,3.56,2.45C342.61,28.69,340,30.86,336.38,30.86Z"/><path class="cls-9" d="M351.46,31.87A11.94,11.94,0,0,0,354.35,24a8,8,0,0,0-5-7.55,26.51,26.51,0,0,0-9.9-1.49c-2.52,0-7.08.29-10.74.72l-.74.09-7.38,31.89h11.1l2.52-11c2.15,5.19,2.62,6.39,4.24,11H351c-2.25-5.14-4.92-10.34-5.81-11.35a7.31,7.31,0,0,0-.58-.48l.73-.24A11.22,11.22,0,0,0,351.46,31.87Zm-15.08-1a4.3,4.3,0,0,1-.84-.1l1.73-7.41a8,8,0,0,1,1.78-.19c2.36,0,3.56.82,3.56,2.45C342.61,28.69,340,30.86,336.38,30.86Z"/><polygon class="cls-1" points="409.17 15.56 407.23 24.85 399.01 24.85 393.56 47.64 382.14 47.64 387.59 24.85 378.67 24.85 381.46 15.56 409.17 15.56"/><polygon class="cls-10" points="409.17 15.56 407.23 24.85 399.01 24.85 393.56 47.64 382.14 47.64 387.59 24.85 378.67 24.85 381.46 15.56 409.17 15.56"/><path class="cls-1" d="M399.57,45h0a.76.76,0,0,0,.54-.8c0-.67-.45-1-1.36-1l-.52,0-.44.05V46.1h.89v-1c.27.45.33.56.55,1h1a7.5,7.5,0,0,0-.69-1A.1.1,0,0,0,399.57,45Zm-.74-.43h-.11v-.66h.12c.25,0,.38.12.38.34S399.08,44.6,398.83,44.6Z"/><path class="cls-11" d="M399.57,45h0a.76.76,0,0,0,.54-.8c0-.67-.45-1-1.36-1l-.52,0-.44.05V46.1h.89v-1c.27.45.33.56.55,1h1a7.5,7.5,0,0,0-.69-1A.1.1,0,0,0,399.57,45Zm-.74-.43h-.11v-.66h.12c.25,0,.38.12.38.34S399.08,44.6,398.83,44.6Z"/><path class="cls-1" d="M398.9,41.91a2.79,2.79,0,1,0,2.79,2.78A2.76,2.76,0,0,0,398.9,41.91Zm0,5.22a2.44,2.44,0,0,1,0-4.88,2.44,2.44,0,1,1,0,4.88Z"/><path class="cls-12" d="M398.9,41.91a2.79,2.79,0,1,0,2.79,2.78A2.76,2.76,0,0,0,398.9,41.91Zm0,5.22a2.44,2.44,0,0,1,0-4.88,2.44,2.44,0,1,1,0,4.88Z"/><path class="cls-1" d="M378.25,36.1c0,3.22-2.09,6.78-5.34,9.09a17.57,17.57,0,0,1-10.79,3.12,36,36,0,0,1-10-1.48l2.5-8.95h0a25.35,25.35,0,0,0,8.22,1.92c2.31,0,3.72-.82,3.72-2.11,0-.87-.47-1.21-3.19-2.46-5.77-2.69-8.07-5.14-8.07-8.61,0-6.59,7.18-11.68,16.5-11.68a28.31,28.31,0,0,1,7.48,1L377,24.66c-3.39-1.11-5.17-1.55-6.66-1.55-2,0-3.46.87-3.46,2,0,.44.37.82,1.1,1.21l2.26,1.05a24.18,24.18,0,0,1,5.44,3.18A7.09,7.09,0,0,1,378.25,36.1Z"/><path class="cls-13" d="M378.25,36.1c0,3.22-2.09,6.78-5.34,9.09a17.57,17.57,0,0,1-10.79,3.12,36,36,0,0,1-10-1.48l2.5-8.95h0a25.35,25.35,0,0,0,8.22,1.92c2.31,0,3.72-.82,3.72-2.11,0-.87-.47-1.21-3.19-2.46-5.77-2.69-8.07-5.14-8.07-8.61,0-6.59,7.18-11.68,16.5-11.68a28.31,28.31,0,0,1,7.48,1L377,24.66c-3.39-1.11-5.17-1.55-6.66-1.55-2,0-3.46.87-3.46,2,0,.44.37.82,1.1,1.21l2.26,1.05a24.18,24.18,0,0,1,5.44,3.18A7.09,7.09,0,0,1,378.25,36.1Z"/><polygon class="cls-14" points="499.56 45.96 499.56 45.96 499.56 45.96 499.56 45.95 499.56 45.96"/><path class="cls-15" d="M501,203.39l-3.19-.62q-1.83,2.74-3.86,5.35a109.45,109.45,0,0,1-8.83,10q-2.38,2.38-4.9,4.66-3.8,3.41-7.86,6.56-2.72,2.1-5.54,4.1c-3.76,2.67-7.65,5.19-11.62,7.58-46.73,28-105.52,37.3-105.52,37.3h0s-41.81-6.56-83.07-25.3q-6.66,3.24-13.42,6.32c2.43,1.2,4.89,2.38,7.42,3.54q2.36,1.06,4.75,2.12,6,2.61,11.87,4.92t11.46,4.31q3.74,1.35,7.34,2.56c7.53,2.54,14.56,4.66,20.88,6.43q3.72,1,7.08,1.91l1.63.42,3.42.86,1.39.34,3.5.83,1,.22,3.1.7c2.64.57,4.82,1,6.45,1.33l2.61.48.75.13,1.86.28,1.85-.28c.33-.05,1.93-.32,4.58-.86l1.41-.28c1.5-.31,3.26-.69,5.25-1.14,1.32-.29,2.75-.62,4.27-1A400.89,400.89,0,0,0,433.53,265c17.54-7.68,32.7-16.35,45.29-25.88,1.66-1.26,3.26-2.54,4.83-3.83a140.78,140.78,0,0,0,10.72-9.7,113.48,113.48,0,0,0,14.43-17.65c.58-.87,1.13-1.75,1.67-2.63C507.36,204.63,504.2,204,501,203.39Z"/><path class="cls-16" d="M200.88,203.17h0Z"/><path class="cls-17" d="M321.81,254.73a.66.66,0,0,0-.17-.91l-26.79-18.64-.13-.09a2,2,0,1,0-2,3.39l28.2,16.44A.66.66,0,0,0,321.81,254.73Z"/><path class="cls-18" d="M319.6,188.28a1.63,1.63,0,0,0-1,2.08L327.12,215a1.62,1.62,0,0,0,1.54,1.1,1.7,1.7,0,0,0,.54-.09,1.62,1.62,0,0,0,1-2.08l-8.53-24.61A1.63,1.63,0,0,0,319.6,188.28Z"/><path class="cls-19" d="M349.29,245a1.31,1.31,0,0,0,1.36-1.25l2.29-53.89v-.18a2.94,2.94,0,0,0-5.88.11l1,53.93A1.32,1.32,0,0,0,349.29,245Z"/><path class="cls-20" d="M377,188.39l-8.84,25.51a1.64,1.64,0,0,0,1,2.08,1.69,1.69,0,0,0,.53.09,1.64,1.64,0,0,0,1.55-1.1l8.84-25.51a1.64,1.64,0,0,0-3.09-1.07Z"/><path class="cls-21" d="M359.15,242.56a1.7,1.7,0,0,0,.58.11,1.62,1.62,0,0,0,1.52-1l7.34-19.12a1.63,1.63,0,0,0-3-1.17l-7.33,19.12A1.62,1.62,0,0,0,359.15,242.56Z"/><path class="cls-22" d="M422.54,197.38a2.94,2.94,0,0,0-4.22-4.1l-56.48,58.1a.66.66,0,0,0,0,.9.67.67,0,0,0,.93,0l59.67-54.82Z"/><path class="cls-23" d="M404.24,235.14l-29.1,18.66a.66.66,0,0,0,.67,1.13l30.42-16.41.13-.08a2,2,0,0,0-2.12-3.3Z"/><path class="cls-24" d="M330.74,220.39a1.62,1.62,0,0,0-.94,2.11l7.33,19.12a1.64,1.64,0,0,0,1.53,1,1.7,1.7,0,0,0,.58-.11,1.64,1.64,0,0,0,.94-2.11l-7.33-19.12A1.62,1.62,0,0,0,330.74,220.39Z"/><path class="cls-25" d="M238.53,202.16l43.48,28a2,2,0,0,0,2.2-3.24l-42-30.13-.14-.09a3.27,3.27,0,0,0-3.54,5.5Z"/><path class="cls-26" d="M284.54,190.78a2.94,2.94,0,1,0-4.23,4.08l56,58a.65.65,0,0,0,1-.88L284.65,190.9Z"/><path class="cls-27" d="M417,230.12l44.43-28.62.14-.09a3.27,3.27,0,1,0-3.81-5.31l-43,30.78a2,2,0,0,0,2.21,3.24Z"/><polygon class="cls-28" points="188.71 206.45 188.71 206.45 188.71 206.46 188.71 206.45 188.71 206.45"/><path class="cls-29" d="M200.9,203.16h0Z"/><path class="cls-30" d="M255.31,59.77l.89.12,1.87.24V50h-2.76Z"/><polygon class="cls-30" points="490.12 44.93 434.85 44.93 435.96 45.91 499.56 45.96 499.56 45.95 499.56 44.93 490.12 44.93"/><path class="cls-30" d="M494.78,50v5.32h0V59l1-1.39,0-6.46Z"/><path class="cls-30" d="M509.43,37.44c.32-.49.64-1,.95-1.47l-.92-.91Z"/><path class="cls-30" d="M198.59,200c-1.59.3-3.16.61-4.73.93l-4.62.94-3.08.65q.65,1,1.32,2c.41.62.82,1.23,1.25,1.85h0l-.46-.72c4.12-.89,8.38-1.75,12.63-2.56C200.13,202.13,199.31,201.1,198.59,200Z"/><path class="cls-31" d="M510.39,36l-1,1.47.15,32.6h2.86l-.21-32.23Z"/><path class="cls-31" d="M398.84,43.92h-.12v.66h.11c.25,0,.39-.12.39-.34S399.09,43.92,398.84,43.92Z"/><path class="cls-31" d="M339.05,23.16a8,8,0,0,0-1.78.19l-1.73,7.41a4.3,4.3,0,0,0,.84.1c3.67,0,6.23-2.17,6.23-5.25C342.61,24,341.41,23.16,339.05,23.16Z"/><path class="cls-31" d="M398.9,42.25a2.44,2.44,0,1,0,2.45,2.45A2.43,2.43,0,0,0,398.9,42.25Zm.37,3.85c-.22-.4-.28-.51-.55-1v1h-.89V43.27l.44-.05.52,0c.91,0,1.36.36,1.36,1a.76.76,0,0,1-.54.8h0a.1.1,0,0,1,.05.06,7.5,7.5,0,0,1,.69,1Z"/><path class="cls-32" d="M237.91,237.54q-2.92-1.87-5.76-3.87c-1-.66-1.89-1.33-2.81-2q-4.18-3.06-8.1-6.37c-1.74-1.47-3.44-3-5.08-4.51s-3.25-3.13-4.79-4.75a100.68,100.68,0,0,1-10.47-12.87h-.08c-4.25.82-8.45,1.66-12.57,2.55l.46.72h0c1.59,2.48,3.3,4.94,5.14,7.35l.05.06c.6.78,1.21,1.56,1.83,2.33l.2.24c.58.71,1.16,1.42,1.77,2.13l.46.53c.53.61,1.06,1.22,1.6,1.82.29.33.6.65.89,1l1.27,1.38c.71.74,1.44,1.49,2.17,2.23l.1.1c12.5,12.51,29,23.83,49,33.74q6.75-3.07,13.42-6.32A225.53,225.53,0,0,1,237.91,237.54Z"/><path class="cls-33" d="M520.57,26.74l0,8.35,0,35h-8.86l.51-32.23L510.38,36q3-4.57,5.85-9.23Z"/><path class="cls-30" d="M434.84,24l2.77,2.77h78.62c.57-.92,1.15-1.84,1.72-2.77Z"/><path class="cls-31" d="M518,24c-.57.93-1.14,1.85-1.72,2.77h4.34V24Z"/><polygon class="cls-30" points="255.31 44.93 190.14 44.93 190.14 69.99 190.77 69.99 190.77 46.09 255.31 46.07 258.07 46.07 258.07 44.93 258.07 37.81 255.31 35.05 255.31 44.93"/><polygon class="cls-30" points="434.84 0 255.31 0 255.31 23.97 168.64 23.97 168.64 24.02 168.69 35.09 168.64 70.04 171.41 70.04 171.46 37.86 171.41 26.74 258.07 26.74 258.07 2.77 434.84 2.77 434.84 0"/><path class="cls-31" d="M437.61,26.74,434.84,24V2.77H258.07v24H171.41l.05,11.12L171.41,70h8.5l-.15-34.94v-.05h75.55l2.76,2.76v8.26h-2.76l-64.54,0V69.88l-.63.06v0h4.72V50h63.21V60.13l2.55.33.65.08h0c2.76.34,5.56.67,8.37,1l1.76.2,5.49.56c22.07,2.17,45.49,3.34,69.76,3.34q5.85,0,11.61-.09,8.66-.13,17.15-.46c3.77-.15,7.51-.32,11.23-.53s7.4-.43,11-.68q8.22-.59,16.23-1.34,10.67-1,20.9-2.32V50h59.93v0l.93,1.14,0,6.46q1.92-2.72,3.81-5.45V46L436,45.91l-1.11-1h0V35.05h74.62l.92.91q3-4.57,5.85-9.23ZM295,36.43,292.4,47.64H281l7.44-32.08h22.11l-2.08,8.51h-10.6l-1,4.48h11.05l-1.93,7.88ZM306.1,47.64l7.44-32.08H325l-7.44,32.08Zm39.08-11.35c.89,1,3.56,6.21,5.81,11.35H338.42c-1.62-4.57-2.09-5.77-4.24-11l-2.52,11h-11.1l7.38-31.89.74-.09c3.66-.43,8.22-.72,10.74-.72a26.51,26.51,0,0,1,9.9,1.49,8,8,0,0,1,5,7.55,11.94,11.94,0,0,1-2.89,7.89,11.22,11.22,0,0,1-6.13,3.7l-.73.24A7.31,7.31,0,0,1,345.18,36.29Zm27.73,8.9a17.57,17.57,0,0,1-10.79,3.12,36,36,0,0,1-10-1.48l2.5-8.95h0a25.35,25.35,0,0,0,8.22,1.92c2.31,0,3.72-.82,3.72-2.11,0-.87-.47-1.21-3.19-2.46-5.77-2.69-8.07-5.14-8.07-8.61,0-6.59,7.18-11.68,16.5-11.68a28.31,28.31,0,0,1,7.48,1L377,24.66c-3.39-1.11-5.17-1.55-6.66-1.55-2,0-3.46.87-3.46,2,0,.44.37.82,1.1,1.21l2.26,1.05a24.18,24.18,0,0,1,5.44,3.18,7.09,7.09,0,0,1,2.62,5.53C378.25,39.32,376.16,42.88,372.91,45.19Zm26,2.29a2.79,2.79,0,0,1,0-5.57,2.79,2.79,0,1,1,0,5.57Zm8.33-22.63H399l-5.45,22.79H382.14l5.45-22.79h-8.92l2.79-9.29h27.71Z"/><path class="cls-33" d="M495.75,57.6,495.81,70h3.76V52.15Q497.67,54.88,495.75,57.6Z"/><path class="cls-31" d="M494.77,70h1l-.06-12.41-1,1.39Z"/><path class="cls-1" d="M292.53,327.76v-9.63H297a3.1,3.1,0,1,1,0,6.19h-2.46v3.44Zm5.65-6.53a1.3,1.3,0,0,0-1.43-1.3h-2.17v2.59h2.17A1.3,1.3,0,0,0,298.18,321.23Z"/><path class="cls-1" d="M302.54,323a5,5,0,1,1,5,5A4.84,4.84,0,0,1,302.54,323Zm8,0a2.93,2.93,0,1,0-2.92,3.17A2.91,2.91,0,0,0,310.5,323Z"/><path class="cls-1" d="M322.58,327.76l-1.69-6.61-1.68,6.61H317l-2.76-9.63h2.3l1.69,7,1.83-7h1.6l1.82,7,1.69-7h2.3l-2.74,9.63Z"/><path class="cls-1" d="M329.91,327.76v-9.63h6.82v1.8H332v2h4.67v1.8H332V326h4.77v1.8Z"/><path class="cls-1" d="M345.22,327.76l-1.89-3.42h-1.5v3.42h-2.05v-9.63h4.51a3,3,0,0,1,3.25,3.1,2.79,2.79,0,0,1-2.13,2.86l2.18,3.67Zm.21-6.54a1.3,1.3,0,0,0-1.43-1.29h-2.17v2.6H344A1.3,1.3,0,0,0,345.43,321.22Z"/><path class="cls-1" d="M350.51,327.76v-9.63h6.82v1.8h-4.77v2h4.67v1.8h-4.67V326h4.77v1.8Z"/><path class="cls-1" d="M360.38,327.76v-9.63h3.8c3,0,5.11,1.92,5.11,4.81s-2.1,4.82-5.1,4.82Zm6.81-4.82a2.81,2.81,0,0,0-3-3h-1.76v6h1.75A2.89,2.89,0,0,0,367.19,322.94Z"/><path class="cls-1" d="M377.35,327.76v-9.63h5.07a2.49,2.49,0,0,1,2.77,2.45,2.14,2.14,0,0,1-1.66,2.21,2.32,2.32,0,0,1,1.85,2.36,2.53,2.53,0,0,1-2.8,2.61Zm5.75-6.82a1,1,0,0,0-1.13-1H379.4v2H382A1,1,0,0,0,383.1,320.94Zm.18,3.92a1.1,1.1,0,0,0-1.22-1.1H379.4V326h2.66A1.07,1.07,0,0,0,383.28,324.86Z"/><path class="cls-1" d="M390.62,327.76v-3.94l-3.69-5.69h2.34l2.38,3.85,2.38-3.85h2.33l-3.69,5.69v3.94Z"/><path class="cls-1" d="M202.72,382.75h-34.8V370.09h29a.44.44,0,0,0,.44-.43.41.41,0,0,0-.12-.29s-3.17-3.24-4.43-4.78a12.7,12.7,0,0,1-2.46-7.11,10.48,10.48,0,0,1,4.25-8.17,13.53,13.53,0,0,1,6.93-2.37H251.9v11.67H236.25v24.14H223.36v-24.2H206.61a.35.35,0,0,0-.23.34.34.34,0,0,0,.12.26c.65.67,3.74,3.89,4.52,4.82a11.5,11.5,0,0,1-.21,15.52,11.2,11.2,0,0,1-8.09,3.26M265,367.83l3.1-9.94,3.1,9.94Zm12.8-20.89H257.7s-11,35.74-11,35.81h13.42l1.63-5.17h12.34l1.66,5.18H289ZM313.9,361.6h-8.12v-4.54h7.47a2.35,2.35,0,0,1,2.54,2.35,2.21,2.21,0,0,1-1.88,2.19m10.42,8.47c-2.15,0-2.3-.86-2.3-1s.27-.35.27-.35a21.5,21.5,0,0,0,2.46-1.66,10.22,10.22,0,0,0,3.92-8.38,10.63,10.63,0,0,0-3.9-8.58,14.31,14.31,0,0,0-8.15-3.18H291.3v35.81h14.32V372.5l7.62,7.55c2.61,2.61,6.91,2.7,6.91,2.7h21.68V370.07Zm22.83-23.13h14.7l2.94,9.74,2.75-9.74h15l3.08,9.74,2.95-9.74h13.74s-11,35.81-11,35.81H379L374.83,369l-4.32,13.77H358.36Zm68.57,20.89,3.1-9.94,3.1,9.94Zm12.79-20.89H408.44s-11,35.75-11,35.81h13.41l1.64-5.17h12.32l1.68,5.19h13.21ZM465.3,361.6h-8.13v-4.54h7.47a2.35,2.35,0,0,1,2.54,2.35,2.21,2.21,0,0,1-1.88,2.19m37.92-3.05h17.91V346.94h-23a13.49,13.49,0,0,0-6.92,2.37,10.46,10.46,0,0,0-4.26,8.17,12.7,12.7,0,0,0,2.46,7.11c1.26,1.54,4.43,4.75,4.43,4.75a.43.43,0,0,1-.32.73H475.74c-2.16,0-2.31-.86-2.31-1s.27-.35.27-.35a21.5,21.5,0,0,0,2.46-1.66,10.22,10.22,0,0,0,3.93-8.39,10.65,10.65,0,0,0-3.9-8.58,14.3,14.3,0,0,0-8.16-3.17H442.71v35.8H457V372.5l7.62,7.55c2.61,2.6,6.93,2.69,6.93,2.69h27.76a11.13,11.13,0,0,0,8.09-3.26,11,11,0,0,0,3.12-7.79,10.87,10.87,0,0,0-2.91-7.7c-.77-.93-3.87-4.17-4.51-4.84a.32.32,0,0,1-.13-.26.34.34,0,0,1,.23-.34"/><path class="cls-1" d="M521.13,380h-.69l-.8,2.07-.82-2.07h-.69v2.73h.45v-2.28h0l.9,2.28h.28l.9-2.28h0v2.28h.45Zm-3.56,0h-2.16v.36h.85v2.37h.45v-2.37h.86Z"/><path class="cls-1" d="M273.52,395.45h8.15l0-2.29H273.5a7.11,7.11,0,0,0,0,14.22h8.15l0-2.3h-8.15a4.82,4.82,0,1,1,0-9.63Z"/><path class="cls-1" d="M326.55,402.94H330a4.89,4.89,0,0,0,0-9.78h-3.49a4.89,4.89,0,0,0,0,9.78Zm0-8.21h3.49a3.32,3.32,0,1,1,0,6.63h-3.49a3.32,3.32,0,1,1,0-6.63Z"/><path class="cls-1" d="M234.27,393.16H229.2a7.11,7.11,0,0,0,0,14.22h5.07a7.11,7.11,0,0,0,0-14.22Zm0,11.92h-5.07a4.82,4.82,0,1,1,0-9.63h5.07a4.82,4.82,0,1,1,0,9.63Z"/><polygon class="cls-1" points="287.28 407.38 301.67 407.38 301.67 405.23 289.57 405.23 289.57 401.35 299.82 401.35 299.82 399.32 289.57 399.32 289.57 395.32 301.67 395.32 301.67 393.17 287.28 393.17 287.28 407.38"/><polygon class="cls-1" points="311.47 398.79 318.21 398.79 318.21 397.39 311.47 397.39 311.47 394.64 319.48 394.64 319.48 393.16 309.9 393.16 309.9 402.94 311.47 402.94 311.47 398.79"/><polygon class="cls-1" points="205.56 407.38 207.85 407.38 207.85 401.35 217.63 401.35 217.63 399.32 207.85 399.32 207.85 395.32 219.48 395.32 219.48 393.17 205.56 393.17 205.56 407.38"/><path class="cls-1" d="M262.54,397.75a4.61,4.61,0,0,0-4.92-4.55H246.06v14.18h2.28v-5.55c.78.74,5.41,4.7,5.88,5.07a3.19,3.19,0,0,0,2.07.49h5.83v-2.31h-5.18a2.42,2.42,0,0,1-1.62-.39c-.52-.41-3.25-2.63-3.25-2.63h5.55C260.34,402.06,262.54,400.46,262.54,397.75Zm-14.2,2.16v-4.44h9.2c1.43,0,2.59.78,2.59,2.22a2.3,2.3,0,0,1-2.59,2.22Z"/><path class="cls-1" d="M346.24,393.18h-8v9.76h1.57v-3.82c.54.51,3.73,3.24,4,3.49a2.18,2.18,0,0,0,1.42.34h4v-1.59h-3.57a1.63,1.63,0,0,1-1.11-.27c-.36-.28-2.24-1.81-2.24-1.81h3.82c1.87,0,3.39-1.1,3.39-3A3.18,3.18,0,0,0,346.24,393.18Zm-.05,4.62h-6.34v-3.06h6.34a1.55,1.55,0,1,1,0,3.06Z"/><path class="cls-1" d="M356.6,400.32a7.15,7.15,0,0,0,7.13,7.16h8.21v-2.32h-8.19a4.85,4.85,0,1,1,0-9.7h8.19v-2.3h-8.21A7.15,7.15,0,0,0,356.6,400.32Z"/><path class="cls-1" d="M446,400.25a7.11,7.11,0,0,0,7.13,7.12h8.64v-7.85h-7.15v2h4.84v3.52h-6.31a4.81,4.81,0,1,1,0-9.61h8.62v-2.3h-8.64A7.1,7.1,0,0,0,446,400.25Z"/><polygon class="cls-1" points="483.5 395.31 483.5 393.15 469.1 393.15 469.1 407.38 483.5 407.38 483.5 405.23 471.38 405.23 471.38 401.35 481.65 401.35 481.65 399.31 471.38 399.31 471.38 395.31 483.5 395.31"/><polygon class="cls-1" points="391.73 399.32 380.54 399.32 380.54 393.15 378.23 393.15 378.23 407.38 380.54 407.38 380.54 401.31 391.73 401.31 391.73 407.38 394.04 407.38 394.04 393.15 391.73 393.15 391.73 399.32"/><path class="cls-1" d="M406.88,393.16l-9.08,14.23h2.72l2.43-3.85h11.38l2.45,3.85h2.72l-9.09-14.23Zm-2.68,8.43,4-6.34h.83l4,6.33Z"/><polygon class="cls-1" points="438.56 404.31 426.2 393.15 423.89 393.15 423.89 407.38 426.2 407.38 426.2 396.24 438.56 407.38 440.87 407.38 440.87 393.15 438.56 393.15 438.56 404.31"/><rect class="cls-1" x="309.9" y="405.9" width="39.5" height="1.48"/></g></g></svg>